<svg width="152" height="52" viewBox="0 0 152 52" fill="none" xmlns="http://www.w3.org/2000/svg">
<path d="M67.4016 49.8492H60.6038V37.5964H48.1411V49.8492H41.3643V19.7626H48.1411V31.7637H60.6038V19.7626H67.4016V49.8492Z" fill="black"/>
<path d="M94.0683 49.8492H87.4594V46.5762H87.3544C85.7179 49.1079 83.5289 50.3737 80.7874 50.3737C75.8079 50.3737 73.3182 47.3595 73.3182 41.331V28.3648H79.9272V40.7435C79.9272 43.7787 81.1301 45.2964 83.5359 45.2964C84.7248 45.2964 85.676 44.8837 86.3893 44.0585C87.1027 43.2193 87.4594 42.0863 87.4594 40.6596V28.3648H94.0683V49.8492Z" fill="black"/>
<path d="M106.384 47.3525H106.3V49.8492H99.6702V18.0421H106.3V31.5958H106.384C108.021 29.0921 110.35 27.8402 113.371 27.8402C116.14 27.8402 118.273 28.7914 119.77 30.6936C121.267 32.5959 122.015 35.1975 122.015 38.4985C122.015 42.0793 121.141 44.9537 119.392 47.1217C117.644 49.2897 115.308 50.3737 112.385 50.3737C109.741 50.3737 107.741 49.3667 106.384 47.3525ZM106.195 38.2887V40.4917C106.195 41.8765 106.594 43.0234 107.391 43.9326C108.189 44.8418 109.21 45.2964 110.454 45.2964C111.965 45.2964 113.133 44.7159 113.958 43.5549C114.798 42.38 115.217 40.7225 115.217 38.5825C115.217 36.8061 114.832 35.4213 114.063 34.4282C113.308 33.4212 112.224 32.9176 110.811 32.9176C109.482 32.9176 108.377 33.4142 107.496 34.4073C106.629 35.4004 106.195 36.6942 106.195 38.2887Z" fill="black"/>
<path d="M129.673 24.9658C128.554 24.9658 127.638 24.6371 126.924 23.9797C126.211 23.3084 125.854 22.4901 125.854 21.525C125.854 20.5319 126.211 19.7206 126.924 19.0912C127.638 18.4618 128.554 18.147 129.673 18.147C130.806 18.147 131.722 18.4618 132.421 19.0912C133.135 19.7206 133.492 20.5319 133.492 21.525C133.492 22.5321 133.135 23.3573 132.421 24.0007C131.722 24.6441 130.806 24.9658 129.673 24.9658ZM132.946 49.8492H126.316V28.3648H132.946V49.8492Z" fill="black"/>
<path d="M151.514 49.5975C150.535 50.115 149.059 50.3737 147.087 50.3737C142.415 50.3737 140.08 47.947 140.08 43.0934V33.2533H136.597V28.3648H140.08V23.728L146.689 21.8397V28.3648H151.514V33.2533H146.689V41.9394C146.689 44.1774 147.577 45.2964 149.353 45.2964C150.052 45.2964 150.773 45.0935 151.514 44.6879V49.5975Z" fill="black"/>
<path d="M4.58941 35.8264V14.6078L10.9712 9.77342V31.1705V45.7985L10.3802 45.5144L9.73457 45.0717L8.30812 43.9025L7.39324 42.8078L7.25184 42.6386L7.09488 42.4838L6.48679 41.8839L5.98104 40.9473L5.39305 39.8224L4.95881 38.7024L4.75326 38.011L4.58941 37.4236V35.8264Z" stroke="#0D0D0D" stroke-width="9.17882"/>
<path d="M29.4184 32.9273L29.4184 46.7216H23.0366V37.5832V22.9551L23.6276 23.2393L24.2733 23.682L25.6997 24.8512L26.5668 25.8887L27.5225 27.1108L28.1345 28.0124L28.6148 28.9312L29.049 30.0512L29.2545 30.7426L29.4184 31.33V32.9273Z" stroke="#0D0D0D" stroke-width="9.17882"/>
</svg>
