<svg width="26" height="27" viewBox="0 0 26 27" fill="none" xmlns="http://www.w3.org/2000/svg">
<circle cx="13.25" cy="13.52" r="11.8598" stroke="#1C1A1F" stroke-width="1.5813"/>
<path d="M9.00988 17.552C9.00988 17.914 9.16424 18.2014 9.47297 18.4143C9.6433 18.5101 9.82428 18.5581 10.0159 18.5581C10.1649 18.5581 10.314 18.5208 10.463 18.4463L18.5271 14.4222C18.6868 14.337 18.8199 14.2146 18.9263 14.0549C19.0328 13.8953 19.0807 13.7143 19.07 13.512C19.0594 13.3097 19.0115 13.1341 18.9263 12.985C18.8412 12.836 18.7081 12.7136 18.5271 12.6178L10.463 8.59371C10.314 8.51919 10.1649 8.48193 10.0159 8.48193C9.83492 8.48193 9.65395 8.52984 9.47297 8.62565C9.16424 8.82792 9.00988 9.11535 9.00988 9.48795V17.552Z" fill="#1C1A1F"/>
</svg>