<svg width="463" height="144" viewBox="0 0 463 144" fill="none" xmlns="http://www.w3.org/2000/svg">
<mask id="mask0_283_650" style="mask-type:luminance" maskUnits="userSpaceOnUse" x="0" y="0" width="463" height="144">
<path d="M462.02 0H0.615234V144H462.02V0Z" fill="white"/>
</mask>
<g mask="url(#mask0_283_650)">
<path d="M243.786 36.1802C243.786 41.3694 239.606 45.5495 234.417 45.5495C229.227 45.5495 225.047 41.3694 225.047 36.1802C225.047 30.991 229.083 26.8108 234.417 26.8108C239.75 26.955 243.786 31.1351 243.786 36.1802ZM205.155 55.0631C205.155 55.9279 205.155 57.3694 205.155 57.3694C205.155 57.3694 200.687 51.6036 191.173 51.6036C175.462 51.6036 163.209 63.5676 163.209 80.1441C163.209 96.5766 175.317 108.685 191.173 108.685C200.831 108.685 205.155 102.775 205.155 102.775V105.225C205.155 106.378 206.02 107.243 207.173 107.243H218.849V53.045C218.849 53.045 208.182 53.045 207.173 53.045C206.02 53.045 205.155 54.0541 205.155 55.0631ZM205.155 89.8018C202.993 92.973 198.669 95.7117 193.48 95.7117C184.254 95.7117 177.191 89.9459 177.191 80.1441C177.191 70.3423 184.254 64.5766 193.48 64.5766C198.525 64.5766 203.137 67.4595 205.155 70.4865V89.8018ZM227.498 53.045H241.336V107.243H227.498V53.045ZM434.2 51.6036C424.687 51.6036 420.218 57.3694 420.218 57.3694V26.955H406.381V107.243C406.381 107.243 417.047 107.243 418.056 107.243C419.209 107.243 420.074 106.234 420.074 105.225V102.775C420.074 102.775 424.543 108.685 434.056 108.685C449.768 108.685 462.02 96.5766 462.02 80.1441C462.02 63.7117 449.768 51.6036 434.2 51.6036ZM431.894 95.5676C426.561 95.5676 422.381 92.8288 420.218 89.6577V70.3423C422.381 67.4595 426.993 64.4324 431.894 64.4324C441.119 64.4324 448.182 70.1982 448.182 80C448.182 89.8018 441.119 95.5676 431.894 95.5676ZM399.173 75.0991V107.387H385.336V76.6847C385.336 67.7477 382.453 64.1441 374.669 64.1441C370.489 64.1441 366.164 66.3063 363.426 69.4775V107.243H349.588V53.045H360.543C361.696 53.045 362.561 54.0541 362.561 55.0631V57.3694C366.597 53.1892 371.93 51.6036 377.263 51.6036C383.317 51.6036 388.363 53.3333 392.399 56.7928C397.299 60.8288 399.173 66.018 399.173 75.0991ZM316.002 51.6036C306.489 51.6036 302.02 57.3694 302.02 57.3694V26.955H288.182V107.243C288.182 107.243 298.849 107.243 299.858 107.243C301.011 107.243 301.876 106.234 301.876 105.225V102.775C301.876 102.775 306.345 108.685 315.858 108.685C331.57 108.685 343.822 96.5766 343.822 80.1441C343.966 63.7117 331.714 51.6036 316.002 51.6036ZM313.696 95.5676C308.363 95.5676 304.182 92.8288 302.02 89.6577V70.3423C304.182 67.4595 308.795 64.4324 313.696 64.4324C322.921 64.4324 329.984 70.1982 329.984 80C329.984 89.8018 322.921 95.5676 313.696 95.5676ZM276.218 51.6036C280.399 51.6036 282.561 52.3243 282.561 52.3243V65.1532C282.561 65.1532 271.029 61.2613 263.822 69.4775V107.387H249.984V53.045C249.984 53.045 260.651 53.045 261.66 53.045C262.813 53.045 263.678 54.0541 263.678 55.0631V57.3694C266.272 54.3423 271.894 51.6036 276.218 51.6036ZM132.507 102.342C131.786 100.613 131.065 98.7387 130.345 97.1532C129.191 94.5586 128.038 92.1081 127.029 89.8018L126.885 89.6577C116.939 68.036 106.272 46.1261 95.0294 24.5045L94.597 23.6396C93.4438 21.4775 92.2907 19.1712 91.1375 16.8649C89.6961 14.2703 88.2546 11.5315 85.9483 8.93694C81.3357 3.17117 74.7051 0 67.642 0C60.4348 0 53.9483 3.17117 49.1916 8.64865C47.0294 11.2432 45.4438 13.982 44.0024 16.5766C42.8492 18.8829 41.6961 21.1892 40.5429 23.3514L40.1105 24.2162C29.0114 45.8378 18.2006 67.7477 8.25467 89.3694L8.11053 89.6577C7.10152 91.964 5.94837 94.4144 4.79522 97.009C4.07449 98.5946 3.35377 100.324 2.63305 102.198C0.759183 107.532 0.182607 112.577 0.903327 117.766C2.48891 128.577 9.69611 137.658 19.642 141.694C23.3898 143.279 27.2817 144 31.3177 144C32.4709 144 33.9123 143.856 35.0655 143.712C39.8222 143.135 44.7231 141.55 49.4799 138.811C55.3898 135.495 61.0114 130.739 67.3537 123.82C73.6961 130.739 79.4619 135.495 85.2276 138.811C89.9844 141.55 94.8853 143.135 99.642 143.712C100.795 143.856 102.236 144 103.39 144C107.426 144 111.462 143.279 115.065 141.694C125.155 137.658 132.218 128.432 133.804 117.766C134.957 112.721 134.381 107.676 132.507 102.342ZM67.4979 109.838C59.7141 100.036 54.6691 90.8108 52.9393 83.027C52.2186 79.7117 52.0745 76.8288 52.5069 74.2342C52.7952 71.9279 53.66 69.9099 54.8132 68.1802C57.5519 64.2883 62.1646 61.8378 67.4979 61.8378C72.8312 61.8378 77.588 64.1441 80.1826 68.1802C81.3357 69.9099 82.2006 71.9279 82.4889 74.2342C82.9213 76.8288 82.7772 79.8559 82.0564 83.027C80.3267 90.6667 75.2817 99.8919 67.4979 109.838ZM125.011 116.613C124.002 124.108 118.957 130.595 111.894 133.477C108.435 134.919 104.687 135.351 100.939 134.919C97.3357 134.486 93.7321 133.333 89.9844 131.171C84.7952 128.288 79.606 123.82 73.5519 117.189C83.0655 105.514 88.8312 94.8468 90.9934 85.3333C92.0024 80.8649 92.1465 76.8288 91.7141 73.0811C91.1375 69.4775 89.8402 66.1622 87.8222 63.2793C83.3537 56.7928 75.8582 53.045 67.4979 53.045C59.1375 53.045 51.642 56.9369 47.1736 63.2793C45.1555 66.1622 43.8582 69.4775 43.2817 73.0811C42.7051 76.8288 42.8492 81.009 44.0024 85.3333C46.1646 94.8468 52.0745 105.658 61.4438 117.333C55.5339 123.964 50.2006 128.432 45.0114 131.315C41.2636 133.477 37.66 134.631 34.0564 135.063C30.1646 135.495 26.4168 134.919 23.1015 133.622C16.0384 130.739 10.9934 124.252 9.9844 116.757C9.55197 113.153 9.84026 109.55 11.2817 105.514C11.7141 104.072 12.4348 102.631 13.1555 100.901C14.1646 98.5946 15.3177 96.1441 16.4709 93.6937L16.615 93.4054C26.561 71.9279 37.2276 50.018 48.3267 28.6847L48.7592 27.8198C49.9123 25.6577 51.0655 23.3514 52.2186 21.1892C53.3718 18.8829 54.6691 16.7207 56.2546 14.8468C59.2817 11.3874 63.3177 9.51351 67.7862 9.51351C72.2546 9.51351 76.2907 11.3874 79.3177 14.8468C80.9033 16.7207 82.2006 18.8829 83.3537 21.1892C84.5069 23.3514 85.6601 25.6577 86.8132 27.8198L87.2456 28.6847C98.2006 50.1622 108.867 72.0721 118.813 93.5496V93.6937C119.966 96 120.975 98.5946 122.128 100.901C122.849 102.631 123.57 104.072 124.002 105.514C125.155 109.261 125.588 112.865 125.011 116.613Z" fill="#FF5A5F"/>
</g>
</svg>
