<svg width="922" height="144" viewBox="0 0 922 144" fill="none" xmlns="http://www.w3.org/2000/svg">
<path fill-rule="evenodd" clip-rule="evenodd" d="M377.361 129.237V79.2738C377.361 65.8159 369.617 54.5706 356.159 54.5706C342.699 54.5706 334.22 65.8159 334.22 79.2738V129.237H315.231V38.1607H332.929L334.22 50.3298C339.381 40.3733 350.075 36.6875 359.662 36.6875C371.277 36.6875 383.075 41.4795 388.238 54.9375C395.613 41.4795 407.043 36.8719 419.394 36.8719C444.468 36.8719 457.928 52.7267 457.928 78.9051V129.237H438.754V78.9051C438.754 65.4471 432.117 54.7531 418.657 54.7531C405.199 54.7531 396.535 65.8159 396.535 79.2738V129.237H377.361Z" fill="#353B45"/>
<path fill-rule="evenodd" clip-rule="evenodd" d="M495.729 83.886C495.729 100.111 506.238 113.385 523.566 113.385C541.083 113.385 551.592 100.111 551.592 83.886C551.592 67.8467 540.161 54.0182 523.566 54.0182C506.238 54.0182 495.729 67.8467 495.729 83.886ZM570.764 83.886C570.764 110.804 552.145 131.084 523.566 131.084C495.176 131.084 476.739 110.804 476.739 83.886C476.739 57.1545 495.362 36.5039 523.566 36.5039C551.592 36.5039 570.764 57.1545 570.764 83.886Z" fill="#353B45"/>
<path fill-rule="evenodd" clip-rule="evenodd" d="M648.944 60.6564C641.753 54.0187 634.011 52.1749 624.978 52.1749C613.362 51.9924 605.618 55.8625 605.618 63.0533C605.803 70.6129 613.731 73.563 625.345 74.6693C642.122 76.1425 664.061 79.8301 663.877 103.245C663.694 120.206 648.759 132.006 625.161 132.006C610.412 132.006 595.662 128.687 583.679 115.229L593.633 101.77C602.115 111.173 614.837 115.045 625.529 115.229C634.564 115.229 644.703 111.91 644.887 103.429C645.072 95.3162 637.33 92.1836 623.87 90.8929C606.724 89.2335 586.998 83.7021 586.813 63.6065C586.813 43.5109 607.646 35.9531 624.607 35.9531C638.62 35.9531 649.497 39.0857 659.636 48.1204L648.944 60.6564Z" fill="#353B45"/>
<path fill-rule="evenodd" clip-rule="evenodd" d="M696.331 83.7024C696.331 102.507 709.605 113.939 725.828 113.939C765.1 113.939 765.1 53.6521 725.828 53.6521C709.605 53.6521 696.331 65.0818 696.331 83.7024ZM755.881 38.3485H774.317C774.317 68.585 774.317 99.0041 774.317 129.241H756.249L755.327 114.492C749.243 126.106 735.23 131.638 723.985 131.638C697.436 131.822 677.342 114.675 677.342 83.7024C677.342 53.2833 698.175 36.3203 724.353 36.3203C737.26 36.3203 749.612 42.4049 755.327 52.7302L755.881 38.3485Z" fill="#353B45"/>
<path fill-rule="evenodd" clip-rule="evenodd" d="M800.132 129.24H819.122V37.9787H800.132V129.24ZM821.519 11.616C821.519 27.2864 797.92 27.2864 797.92 11.616C797.92 -3.872 821.519 -3.872 821.519 11.616Z" fill="#353B45"/>
<path fill-rule="evenodd" clip-rule="evenodd" d="M921.813 117.441C911.674 127.398 900.427 131.638 887.336 131.638C861.157 131.638 839.402 115.23 839.402 83.8875C839.402 52.5466 860.973 36.1367 887.336 36.1367C899.874 36.1367 910.383 40.0087 920.154 49.5965L907.986 62.3169C902.271 56.7855 894.711 54.206 887.522 54.206C871.114 54.206 858.392 65.8201 858.392 83.8875C858.392 103.061 871.665 113.202 887.336 113.202C895.082 113.202 903.008 110.805 908.908 104.721L921.813 117.441Z" fill="#353B45"/>
<path fill-rule="evenodd" clip-rule="evenodd" d="M36.5389 142.761L1.84772 108.068C0.553366 106.775 0.553366 104.679 1.84772 103.386L36.5389 68.6931C38.191 67.0411 40.87 67.0411 42.5221 68.6931L76.5642 102.735C78.2163 104.387 78.2163 107.066 76.5642 108.718L42.5221 142.761C40.87 144.413 38.191 144.413 36.5389 142.761Z" fill="#29CAF3"/>
<path fill-rule="evenodd" clip-rule="evenodd" d="M84.7831 94.5213L50.741 60.4792C49.089 58.8271 49.089 56.1481 50.741 54.496L84.7831 20.4539C86.4351 18.8018 89.1143 18.8018 90.7663 20.4539L124.808 54.496C126.461 56.1481 126.461 58.8271 124.808 60.4792L90.7663 94.5213C89.1143 96.1752 86.4351 96.1752 84.7831 94.5213Z" fill="#29CAF3"/>
<path fill-rule="evenodd" clip-rule="evenodd" d="M133.591 142.211L99.5486 108.169C97.8965 106.517 97.8965 103.838 99.5486 102.186L133.591 68.1437C135.243 66.4898 137.922 66.4898 139.574 68.1437L173.616 102.186C175.268 103.838 175.268 106.517 173.616 108.169L139.574 142.211C137.922 143.863 135.243 143.863 133.591 142.211Z" fill="#295AF3"/>
<path fill-rule="evenodd" clip-rule="evenodd" d="M181.843 93.9647L147.801 59.9225C146.149 58.2705 146.149 55.5914 147.801 53.9394L181.843 19.8972C183.495 18.2452 186.174 18.2452 187.826 19.8972L221.868 53.9394C223.52 55.5914 223.52 58.2705 221.868 59.9225L187.826 93.9647C186.174 95.6167 183.495 95.6167 181.843 93.9647Z" fill="#295AF3"/>
<path fill-rule="evenodd" clip-rule="evenodd" d="M229.957 142.347L195.915 108.304C194.263 106.652 194.263 103.973 195.915 102.321L229.957 68.2791C231.609 66.627 234.288 66.627 235.94 68.2791L269.982 102.321C271.634 103.973 271.634 106.652 269.982 108.304L235.94 142.347C234.288 143.999 231.609 143.999 229.957 142.347Z" fill="#1B3997"/>
</svg>
