<svg width="686" height="145" viewBox="0 0 686 145" fill="none" xmlns="http://www.w3.org/2000/svg">
<path d="M189.64 49.7053C189.64 48.9522 190.242 48.3497 190.995 48.3497H207.414C215.999 48.3497 222.928 55.2785 222.928 63.7137C222.928 72.2994 215.849 79.3789 207.414 79.3789H198.677V95.7974C198.677 96.5505 198.075 97.153 197.322 97.153H190.995C190.242 97.153 189.64 96.5505 189.64 95.7974V49.7053ZM206.811 70.9438C210.728 70.9438 214.041 67.7806 214.041 63.7137C214.041 59.948 210.728 56.9354 206.811 56.9354H198.677V70.9438H206.811Z" fill="#6D6E71"/>
<path d="M229.104 49.7053C229.104 48.9522 229.707 48.3497 230.46 48.3497H236.937C237.69 48.3497 238.293 48.9522 238.293 49.7053V95.7974C238.293 96.5505 237.69 97.153 236.937 97.153H230.46C229.707 97.153 229.104 96.5505 229.104 95.7974V49.7053Z" fill="#6D6E71"/>
<path d="M249.439 49.7053C249.439 48.9522 250.041 48.3497 250.795 48.3497H279.113C279.866 48.3497 280.468 48.9522 280.468 49.7053V55.4292C280.468 56.1823 279.866 56.7848 279.113 56.7848H258.477V68.2325H275.648C276.401 68.2325 277.004 68.835 277.004 69.5882V75.312C277.004 76.0651 276.401 76.6676 275.648 76.6676H258.477V88.8685H279.113C279.866 88.8685 280.468 89.471 280.468 90.2241V95.948C280.468 96.7011 279.866 97.3036 279.113 97.3036H250.795C250.041 97.3036 249.439 96.7011 249.439 95.948V49.7053Z" fill="#6D6E71"/>
<path d="M305.623 49.7053C305.623 48.9522 306.226 48.3497 306.979 48.3497H313.456C314.209 48.3497 314.811 48.9522 314.811 49.7053V95.7974C314.811 96.5505 314.209 97.153 313.456 97.153H306.979C306.226 97.153 305.623 96.5505 305.623 95.7974V49.7053Z" fill="#6D6E71"/>
<path d="M325.958 48.9521C325.958 48.199 326.56 47.7471 327.313 47.7471H329.121L358.041 78.4751V49.7053C358.041 48.9521 358.644 48.3496 359.397 48.3496H365.874C366.627 48.3496 367.229 48.9521 367.229 49.7053V96.5505C367.229 97.3036 366.627 97.7555 365.874 97.7555H364.217L335.146 65.8224V95.7973C335.146 96.5505 334.543 97.153 333.79 97.153H327.464C326.711 97.153 326.108 96.5505 326.108 95.7973L325.958 48.9521Z" fill="#6D6E71"/>
<path d="M375.966 90.2243L378.527 85.8561C379.129 84.9524 380.334 84.9524 380.937 85.4043C381.238 85.5549 386.962 89.7725 391.481 89.7725C395.096 89.7725 397.807 87.3624 397.807 84.3499C397.807 80.7348 394.794 78.3248 388.92 76.0653C382.443 73.354 375.815 69.2871 375.815 61.0026C375.815 54.8269 380.334 47.5967 391.481 47.5967C398.56 47.5967 403.983 51.2118 405.338 52.2662C406.092 52.7181 406.242 53.9231 405.79 54.5256L403.079 58.4419C402.476 59.3457 401.422 59.7976 400.669 59.3457C400.066 59.0444 394.794 55.58 391.029 55.58C387.112 55.58 384.853 58.2913 384.853 60.4001C384.853 63.7139 387.414 65.9733 393.138 68.2327C399.916 70.944 407.748 75.011 407.748 83.898C407.748 91.1281 401.573 97.6051 391.782 97.6051C383.046 97.6051 377.924 93.5381 376.418 92.1825C375.665 91.7306 375.364 91.2787 375.966 90.2243Z" fill="#6D6E71"/>
<path d="M414.376 49.7053C414.376 48.9522 414.979 48.3497 415.732 48.3497H422.36C423.113 48.3497 423.715 48.9522 423.715 49.7053V78.1739C423.715 84.0484 427.782 88.7179 433.807 88.7179C439.833 88.7179 443.899 84.0484 443.899 78.1739V49.7053C443.899 48.9522 444.502 48.3497 445.255 48.3497H451.883C452.636 48.3497 453.238 48.9522 453.238 49.7053V78.6258C453.238 89.1697 444.803 97.7555 433.807 97.7555C422.812 97.7555 414.527 89.1697 414.527 78.6258V49.7053H414.376Z" fill="#6D6E71"/>
<path d="M463.933 49.7053C463.933 48.9522 464.535 48.3497 465.288 48.3497H485.171C493.456 48.3497 500.385 54.9773 500.385 63.2618C500.385 69.7388 496.167 74.8601 490.142 77.2702L499.631 94.8936C500.083 95.7973 499.631 96.8517 498.426 96.8517H491.046C490.443 96.8517 490.142 96.5505 489.991 96.2492L480.803 77.8727H473.121V95.7974C473.121 96.5505 472.518 97.153 471.765 97.153H465.288C464.535 97.153 463.933 96.5505 463.933 95.7974V49.7053ZM484.418 70.4919C488.033 70.4919 491.347 67.3287 491.347 63.4124C491.347 59.7974 488.184 56.6342 484.418 56.6342H473.121V70.4919H484.418Z" fill="#6D6E71"/>
<path d="M504.15 95.1951L525.84 48.3499C525.991 47.898 526.443 47.5967 527.045 47.5967H527.798C528.552 47.5967 528.702 47.898 529.003 48.3499L550.393 95.1951C550.844 96.0988 550.242 97.0026 549.188 97.0026H543.162C542.108 97.0026 541.656 96.5507 541.204 95.6469L537.74 88.1156H516.953L513.489 95.6469C513.188 96.4001 512.585 97.0026 511.531 97.0026H505.506C504.15 97.0026 503.698 96.0988 504.15 95.1951ZM534.125 80.4335L527.196 65.0695H527.045L520.267 80.4335H534.125Z" fill="#6D6E71"/>
<path d="M555.514 48.9521C555.514 48.199 556.117 47.7471 556.87 47.7471H558.677L587.598 78.4751V49.7053C587.598 48.9521 588.2 48.3496 588.954 48.3496H595.43C596.184 48.3496 596.786 48.9521 596.786 49.7053V96.5505C596.786 97.3036 596.184 97.7555 595.43 97.7555H593.774L564.552 65.8224V95.7973C564.552 96.5505 563.949 97.153 563.196 97.153H556.87C556.117 97.153 555.514 96.5505 555.514 95.7973V48.9521Z" fill="#6D6E71"/>
<path d="M629.774 47.5967C636.853 47.5967 641.824 49.8561 646.644 54.0737C647.247 54.6762 647.247 55.4294 646.644 56.0319L642.426 60.4001C641.975 61.0026 641.221 61.0026 640.619 60.4001C637.757 57.8394 633.841 56.3331 629.924 56.3331C621.037 56.3331 614.41 63.7139 614.41 72.6009C614.41 81.3373 621.037 88.7181 629.924 88.7181C634.142 88.7181 637.606 87.0612 640.619 84.8017C641.221 84.3499 641.975 84.3499 642.426 84.8017L646.795 89.3206C647.397 89.7725 647.247 90.6762 646.795 91.1281C642.125 95.6469 636.1 97.9063 629.924 97.9063C616.067 97.9063 604.77 86.9105 604.77 72.9022C604.619 58.8938 615.765 47.5967 629.774 47.5967Z" fill="#6D6E71"/>
<path d="M654.175 49.7053C654.175 48.9522 654.777 48.3497 655.53 48.3497H683.848C684.602 48.3497 685.204 48.9522 685.204 49.7053V55.4292C685.204 56.1823 684.602 56.7848 683.848 56.7848H663.212V68.2325H680.384C681.137 68.2325 681.74 68.835 681.74 69.5882V75.312C681.74 76.0651 681.137 76.6676 680.384 76.6676H663.212V88.8685H683.848C684.602 88.8685 685.204 89.471 685.204 90.2241V95.948C685.204 96.7011 684.602 97.3036 683.848 97.3036H655.53C654.777 97.3036 654.175 96.7011 654.175 95.948V49.7053Z" fill="#6D6E71"/>
<path d="M72.9038 144.752C113.272 144.752 145.958 112.518 145.958 72.752C145.958 32.9863 113.272 0.752014 72.9038 0.752014C32.5356 0.752014 0 32.9863 0 72.752C0 112.518 32.6862 144.752 72.9038 144.752Z" fill="white"/>
<path fill-rule="evenodd" clip-rule="evenodd" d="M145.958 72.752C145.958 112.518 113.272 144.752 72.9038 144.752C32.6862 144.752 0 112.518 0 72.752C0 32.9863 32.5356 0.752014 72.9038 0.752014C113.272 0.752014 145.958 32.9863 145.958 72.752ZM66.2763 46.3919C66.2763 42.6262 69.2888 39.6136 73.0545 39.6136C76.6696 39.6136 79.8328 42.6262 79.8328 46.3919C79.8328 50.1576 76.8202 53.1701 73.0545 53.1701C69.2888 53.1701 66.2763 50.1576 66.2763 46.3919ZM67.0294 93.6889V59.4965H79.0796V93.6889H67.0294ZM36.452 53.9233H34.1926V66.4253H36.452C41.1215 66.4253 45.7909 66.4253 45.7909 60.2496C45.7909 53.9233 41.5734 53.9233 36.452 53.9233ZM34.3432 93.6889H21.2386V43.3793H41.2721C51.9667 43.3793 59.4981 48.35 59.4981 59.9484C59.4981 71.8479 53.1717 76.9693 41.724 76.9693H34.3432V93.6889ZM125.172 62.509C125.172 50.7601 118.243 43.3793 106.343 43.3793C95.1966 43.3793 87.364 50.3082 87.364 61.7559C87.364 73.6555 95.7992 79.9818 107.247 79.9818C111.163 79.9818 115.079 79.0781 118.243 77.1199C121.406 75.1617 123.816 72.2998 124.72 68.2329H112.971C111.615 70.4923 109.808 71.3961 107.096 71.3961C102.126 71.3961 99.4142 68.6848 99.4142 63.714H125.021L125.172 62.509ZM99.7155 56.7852C100.469 53.1701 103.331 51.3626 106.946 51.3626C110.259 51.3626 113.272 53.4714 113.874 56.7852H99.7155ZM32.8365 112.818C43.5311 123.513 57.8407 129.387 72.9035 129.387C88.1169 129.387 102.276 123.362 112.97 112.818L106.493 106.341C97.4558 115.228 85.5562 120.199 72.9035 120.199C60.2508 120.199 48.3512 115.379 39.3135 106.341L32.8365 112.818Z" fill="#FF961A"/>
</svg>
