<svg width="416" height="144" viewBox="0 0 416 144" fill="none" xmlns="http://www.w3.org/2000/svg">
<mask id="mask0_283_643" style="mask-type:luminance" maskUnits="userSpaceOnUse" x="0" y="0" width="416" height="144">
<path d="M415.689 0H0.884766V144H415.689V0Z" fill="white"/>
</mask>
<g mask="url(#mask0_283_643)">
<path d="M24.7499 102.843C26.5028 107.495 28.9297 111.472 32.0309 114.775C35.1322 118.079 38.8063 120.607 43.0532 122.36C47.3006 124.113 51.9185 124.989 56.9074 124.989C61.7616 124.989 66.3119 124.079 70.5593 122.258C74.8066 120.438 78.5143 117.876 81.6827 114.573C84.8511 111.27 87.312 107.326 89.0649 102.742C90.8178 98.1575 91.6941 93.0343 91.6941 87.371V0H112.93V141.573H91.8963V128.427C87.1773 133.415 81.6151 137.258 75.2108 139.955C68.8059 142.652 61.8963 144 54.4805 144C46.9296 144 39.8848 142.685 33.3453 140.056C26.8062 137.427 21.1429 133.686 16.3567 128.831C11.5706 123.977 7.79485 118.147 5.03099 111.337C2.2667 104.528 0.884766 96.9443 0.884766 88.5842V0H22.1207V87.371C22.1207 93.0343 22.997 98.191 24.7499 102.843Z" fill="#010202"/>
<path d="M149.535 0V51.573C154.254 46.8539 159.715 43.1127 165.917 40.3484C172.119 37.5841 178.861 36.2022 186.142 36.2022C193.693 36.2022 200.771 37.6177 207.378 40.4491C213.984 43.2805 219.714 47.1233 224.569 51.9775C229.423 56.8317 233.266 62.5617 236.097 69.1684C238.928 75.7755 240.344 82.7867 240.344 90.2024C240.344 97.6178 238.928 104.595 236.097 111.134C233.266 117.674 229.423 123.371 224.569 128.224C219.714 133.078 213.984 136.921 207.378 139.753C200.771 142.584 193.692 144 186.142 144C178.861 144 172.086 142.618 165.816 139.853C159.546 137.089 154.052 133.348 149.333 128.629V141.573H129.108V0H149.535ZM151.861 104.157C153.681 108.472 156.209 112.247 159.445 115.483C162.681 118.719 166.457 121.281 170.771 123.169C175.086 125.057 179.737 126 184.726 126C189.581 126 194.164 125.057 198.479 123.169C202.793 121.281 206.535 118.72 209.704 115.483C212.872 112.248 215.4 108.472 217.288 104.157C219.176 99.8428 220.119 95.1913 220.119 90.2024C220.119 85.2135 219.176 80.5281 217.288 76.146C215.4 71.7639 212.872 67.9551 209.704 64.7192C206.535 61.4836 202.794 58.9552 198.479 57.1351C194.164 55.3151 189.58 54.4044 184.726 54.4044C179.873 54.4044 175.288 55.3146 170.974 57.1351C166.659 58.9556 162.884 61.4836 159.648 64.7192C156.412 67.9551 153.85 71.7639 151.962 76.146C150.075 80.5281 149.131 85.2135 149.131 90.2024C149.131 95.1913 150.041 99.8428 151.861 104.157Z" fill="#010202"/>
<path d="M251.87 69.3721C254.566 62.9001 258.275 57.2036 262.994 52.2823C267.712 47.361 273.308 43.4846 279.78 40.6532C286.252 37.8217 293.263 36.4062 300.814 36.4062C308.23 36.4062 315.106 37.7547 321.443 40.451C327.78 43.1477 333.241 46.8893 337.825 51.6759C342.41 56.4621 345.983 62.1254 348.544 68.6645C351.106 75.204 352.387 82.3164 352.387 90.002V96.6763H268.455C269.129 100.856 270.477 104.732 272.5 108.305C274.522 111.878 277.05 114.979 280.084 117.608C283.117 120.238 286.556 122.294 290.398 123.777C294.241 125.26 298.32 126.002 302.634 126.002C314.904 126.002 324.815 120.945 332.365 110.833L347.129 121.754C342.005 128.631 335.669 134.024 328.118 137.934C320.567 141.844 312.073 143.799 302.635 143.799C294.949 143.799 287.77 142.45 281.096 139.754C274.421 137.058 268.624 133.282 263.702 128.428C258.781 123.574 254.905 117.877 252.073 111.338C249.242 104.799 247.826 97.6862 247.826 90.0011C247.825 82.7205 249.174 75.844 251.87 69.3721ZM280.286 61.383C274.556 66.1696 270.747 72.5404 268.859 80.4954H331.758C330.005 72.5404 326.264 66.1696 320.533 61.383C314.803 56.5968 308.095 54.2035 300.41 54.2035C292.724 54.2035 286.016 56.5968 280.286 61.383Z" fill="#010202"/>
<path d="M390.61 63.7073C386.296 68.4263 384.139 74.8307 384.139 82.9209V141.573H363.711V38.4267H383.936V51.1684C386.498 46.9886 389.835 43.685 393.947 41.2582C398.059 38.8308 402.947 37.6172 408.61 37.6172H415.689V56.6285H407.194C400.453 56.629 394.925 58.9883 390.61 63.7073Z" fill="#010202"/>
</g>
</svg>
