<svg width="533" height="144" viewBox="0 0 533 144" fill="none" xmlns="http://www.w3.org/2000/svg">
<path fill-rule="evenodd" clip-rule="evenodd" d="M507.031 100.127V32.3984H491.527V100.127H507.031ZM162.885 32.3997L188.997 100.128V100.331H206.541L232.653 32.6037H216.333L198.381 80.1355H197.973L179.817 32.3997H162.885ZM323.222 63.4077H329.954V87.4795C329.954 98.2917 336.89 101.555 344.642 101.555C350.966 101.555 355.046 99.9233 358.513 97.2715V87.0713C355.658 88.2953 353.21 88.9073 350.762 88.9073C347.09 88.9073 345.254 87.2757 345.254 83.1955V63.4077H357.901V52.5955H345.254V39.3356H335.666L334.034 45.6596C332.81 50.1475 331.382 52.5955 326.69 53.4116L323.222 54.0235V63.4077ZM413.396 81.5611H413.804L422.984 52.5932H437.06L421.964 100.329H406.868L399.116 71.5653H398.708L391.16 100.329H376.064L360.968 52.5932H376.472L385.652 81.5611H386.06L393.608 52.5932H406.052L413.396 81.5611ZM530.087 32.3984V100.127H514.583V32.3984H530.087ZM295.482 68.914L304.662 70.5456C315.066 72.1778 320.982 76.6656 321.186 86.05C321.186 96.0458 312.822 101.554 299.766 101.554C286.914 101.554 277.122 96.2496 276.306 84.6216L284.058 84.4178H289.77C290.382 89.11 294.054 91.558 299.766 91.558C303.846 91.558 306.702 90.1296 306.702 87.4778C306.702 85.0298 305.274 83.8058 301.398 83.1938L294.054 81.9698C283.038 80.3376 277.122 76.4618 277.122 67.078C277.122 57.6936 285.078 51.1658 298.134 50.9619C311.802 50.9619 319.758 57.0816 320.778 67.2818L307.926 67.69C307.11 63.6098 303.846 61.1618 297.93 61.1618C294.054 61.1618 291.606 62.794 291.606 65.4458C291.606 67.4856 293.034 68.5058 295.482 68.914ZM259.174 84.4151C257.338 88.0871 254.074 89.7192 249.178 89.7192C243.262 89.7192 238.366 86.0472 237.958 79.7234H272.434V75.0312C272.434 61.9754 264.07 51.1634 248.362 51.1634C233.674 51.1634 222.862 61.9754 222.862 77.0711C222.862 92.1672 233.674 101.551 248.77 101.551C261.214 101.551 269.782 95.4311 272.23 84.6194H271.414H259.174V84.4151ZM248.362 62.3836C254.278 62.3836 257.338 66.6676 257.542 71.3592H238.366C239.182 66.4632 242.038 62.3836 248.362 62.3836ZM462.155 89.7192C467.051 89.7192 470.315 88.0871 472.151 84.4151V84.6194H484.391H485.207C482.759 95.4311 474.191 101.551 461.747 101.551C446.651 101.551 435.839 92.1672 435.839 77.0711C435.839 61.9754 446.651 51.1634 461.339 51.1634C477.047 51.1634 485.411 61.9754 485.411 75.0312V79.7234H450.935C451.343 86.0472 456.239 89.7192 462.155 89.7192ZM470.315 71.3592C470.111 66.6676 467.051 62.3836 461.135 62.3836C455.015 62.3836 452.159 66.4632 451.139 71.3592H470.315Z" fill="#033952"/>
<path fill-rule="evenodd" clip-rule="evenodd" d="M0.884766 9.18742C0.884766 4.0833 5.47848 0 10.8378 0H116.749C122.363 0 126.702 4.0833 126.702 9.18742V71.4578C126.702 87.5359 117.004 104.38 97.8633 121.988C84.3372 134.238 70.8112 142.405 70.3011 142.66C66.983 144.446 62.9001 144.446 59.582 142.66C59.4856 142.563 58.9013 142.2 57.9232 141.591C53.745 138.991 42.3721 131.914 30.9991 121.988C11.0931 104.634 0.884766 87.5359 0.884766 71.2025V9.18742ZM28.4474 30.8787L54.7336 99.2742H72.3426L98.884 30.8787H82.5511L64.4314 78.8577H63.9208L45.5462 30.8787H28.4474Z" fill="#DDC04A"/>
</svg>
